HIERARCHY
ROOT Hips
{
	OFFSET 0.000000 0.000000 0.000000
	CHANNELS 6 Xposition Yposition Zposition Zrotation Yrotation Xrotation 
	JOINT LowerBack
	{
		OFFSET 0.000000 0.000000 0.000000
		CHANNELS 3 Zrotation Yrotation Xrotation
		JOINT Spine
		{
			OFFSET 0.028270 2.035590 -0.193380
			CHANNELS 3 Zrotation Yrotation Xrotation
			JOINT Spine1
			{
				OFFSET 0.056720 2.048850 -0.042750
				CHANNELS 3 Zrotation Yrotation Xrotation
				JOINT Neck
				{
					OFFSET 0.000000 0.000000 0.000000
					CHANNELS 3 Zrotation Yrotation Xrotation
					JOINT Neck1
					{
						OFFSET -0.054170 1.746240 0.172020
						CHANNELS 3 Zrotation Yrotation Xrotation
						JOINT Head
						{
							OFFSET 0.104070 1.761360 -0.123970
							CHANNELS 3 Zrotation Yrotation Xrotation
							End Site
							{
								OFFSET 0.000000 0.000000 0.000000
							}
						}
					}
				}
				JOINT LeftShoulder
				{
					OFFSET 0.000000 0.000000 0.000000
					CHANNELS 3 Zrotation Yrotation Xrotation
					JOINT LeftArm
					{
						OFFSET 3.362410 1.200890 -0.311210
						CHANNELS 3 Zrotation Yrotation Xrotation
						JOINT LeftForeArm
						{
							OFFSET 4.983000 -0.000000 -0.000000
							CHANNELS 3 Zrotation Yrotation Xrotation
							JOINT LeftHand
							{
								OFFSET 3.483560 -0.000000 -0.000000
								CHANNELS 3 Zrotation Yrotation Xrotation
								JOINT LeftFingerBase
								{
									OFFSET 0.000000 0.000000 0.000000
									CHANNELS 3 Zrotation Yrotation Xrotation
									JOINT LeftHandIndex1
									{
										OFFSET 0.715260 -0.000000 -0.000000
										CHANNELS 3 Zrotation Yrotation Xrotation
										End Site
										{
											OFFSET 0.000000 0.000000 0.000000
										}
									}
								}
								JOINT LThumb
								{
									OFFSET 0.000000 0.000000 0.000000
									CHANNELS 3 Zrotation Yrotation Xrotation
									End Site
									{
										OFFSET 0.000000 0.000000 0.000000
									}
								}
							}
						}
					}
				}
				JOINT RightShoulder
				{
					OFFSET 0.000000 0.000000 0.000000
					CHANNELS 3 Zrotation Yrotation Xrotation
					JOINT RightArm
					{
						OFFSET -3.136600 1.374050 -0.404650
						CHANNELS 3 Zrotation Yrotation Xrotation
						JOINT RightForeArm
						{
							OFFSET -5.241900 -0.000000 -0.000000
							CHANNELS 3 Zrotation Yrotation Xrotation
							JOINT RightHand
							{
								OFFSET -3.444170 -0.000000 -0.000000
								CHANNELS 3 Zrotation Yrotation Xrotation
								JOINT RightFingerBase
								{
									OFFSET 0.000000 0.000000 0.000000
									CHANNELS 3 Zrotation Yrotation Xrotation
									JOINT RightHandIndex1
									{
										OFFSET -0.622530 -0.000000 -0.000000
										CHANNELS 3 Zrotation Yrotation Xrotation
										End Site
										{
											OFFSET 0.000000 0.000000 0.000000
										}
									}
								}
								JOINT RThumb
								{
									OFFSET 0.000000 0.000000 0.000000
									CHANNELS 3 Zrotation Yrotation Xrotation
									End Site
									{
										OFFSET 0.000000 0.000000 0.000000
									}
								}
							}
						}
					}
				}
			}
		}
	}
}
}
MOTION
Frames: 15
Frame Time: 0.008333
1.082389 16.858009 -2.091828 -169.342131 87.994900 -165.191643 -4.740157 2.413409 -0.783492 -1.292402 2.703391 -3.384071 -3.556015 2.614036 -0.645116 3.814910 -3.592802 -7.937167 -1.137177 -0.088854 -0.041703 0.000000 0.000000 0.000000 -8.545226 19.622432 2.482472 -60.543156 31.844720 9.268561 -4.892399 -20.624353 -0.043205 -6.927104 12.594309 -0.760268 -0.125175 -0.125743 -0.000000 0.000000 0.000000 0.000000 0.000000 0.000000 0.000000 -1.014974 3.802673 -0.727455 31.008882 34.602283 15.360628 0.137344 83.856377 -0.038885 -4.818789 4.711372 -0.217866 -0.002268 -0.460822 -0.000000 0.000000 0.000000 0.000000 0.000000 0.000000 0.000000 
1.248213 16.786767 -2.131701 -178.731542 87.808293 -174.649562 -5.298541 2.264588 -0.640934 -1.421654 2.588113 -3.372644 -3.674820 2.499670 -0.661369 4.312900 -3.567774 -8.018151 -1.210565 -0.092641 -0.070338 0.000000 0.000000 0.000000 -8.525790 19.371001 2.571914 -60.582073 30.760970 9.651733 -4.871778 -20.553296 -0.042763 -6.964920 12.746435 -0.773360 -0.124696 -0.119696 -0.000000 0.000000 0.000000 0.000000 0.000000 0.000000 0.000000 -0.281505 3.911369 -0.600049 32.298923 34.053609 16.022429 0.145812 83.667582 -0.037460 -4.738214 4.703380 -0.213884 0.003277 -0.458835 -0.000000 0.000000 0.000000 0.000000 0.000000 0.000000 0.000000 
1.408490 16.711742 -2.171001 174.569735 87.520978 178.591371 -5.795604 2.099288 -0.444511 -1.540865 2.452581 -3.348548 -3.795016 2.367703 -0.677845 4.794971 -3.522979 -8.121051 -1.291462 -0.096554 -0.107210 0.000000 0.000000 0.000000 -8.579032 19.144993 2.676040 -60.548650 29.405069 10.108627 -4.847913 -20.380644 -0.041894 -6.962048 12.837910 -0.778143 -0.124258 -0.111916 -0.000000 0.000000 0.000000 0.000000 0.000000 0.000000 0.000000 0.450329 4.048528 -0.473129 33.646746 33.451847 16.638580 0.153748 83.418439 -0.036007 -4.643313 4.752619 -0.211700 0.008430 -0.457615 -0.000000 0.000000 0.000000 0.000000 0.000000 0.000000 0.000000 
1.562655 16.633799 -2.210267 169.867470 87.144622 173.827813 -6.244620 1.921354 -0.178991 -1.649789 2.301883 -3.310023 -3.914231 2.222305 -0.698057 5.249627 -3.463251 -8.241371 -1.379966 -0.100621 -0.151378 0.000000 0.000000 0.000000 -8.704770 18.923979 2.793824 -60.445443 27.766425 10.625036 -4.825212 -20.078128 -0.040625 -6.923886 12.853938 -0.774114 -0.124052 -0.102298 -0.000000 0.000000 0.000000 0.000000 0.000000 0.000000 0.000000 1.170132 4.204665 -0.348975 35.050420 32.782339 17.192353 0.161849 83.102590 -0.034665 -4.553075 4.881350 -0.212913 0.013392 -0.457503 -0.000000 0.000000 0.000000 0.000000 0.000000 0.000000 0.000000 
1.710533 16.554046 -2.250088 166.667148 86.689112 170.557848 -6.645924 1.739333 0.163772 -1.747028 2.144642 -3.256793 -4.031797 2.071421 -0.725299 5.666343 -3.394695 -8.372743 -1.475928 -0.104904 -0.201172 0.000000 0.000000 0.000000 -8.897303 18.687165 2.922435 -60.277241 25.842454 11.181377 -4.807174 -19.628289 -0.038976 -6.847186 12.783153 -0.760476 -0.124232 -0.090807 -0.000000 0.000000 0.000000 0.000000 0.000000 0.000000 0.000000 1.867434 4.369647 -0.229998 36.516074 32.023482 17.670387 0.170996 82.707320 -0.033546 -4.487145 5.105549 -0.218827 0.018410 -0.458624 -0.000000 0.000000 0.000000 0.000000 0.000000 0.000000 0.000000 
1.852265 16.473925 -2.291044 164.605698 86.160088 168.414810 -6.993413 1.562711 0.583566 -1.831186 1.989758 -3.189938 -4.148156 1.923481 -0.761797 6.035960 -3.324685 -8.507832 -1.578723 -0.109456 -0.254460 0.000000 0.000000 0.000000 -9.145313 18.415897 3.057859 -60.051046 23.637930 11.751085 -4.796018 -19.025392 -0.036961 -6.716727 12.619520 -0.735227 -0.124883 -0.077486 -0.000000 0.000000 0.000000 0.000000 0.000000 0.000000 0.000000 2.532234 4.530853 -0.119080 38.054263 31.150273 18.062348 0.182287 82.212616 -0.032737 -4.464773 5.433357 -0.230941 0.023730 -0.460843 -0.000000 0.000000 0.000000 0.000000 0.000000 0.000000 0.000000 
1.988356 16.394972 -2.333632 163.408296 85.559853 167.125224 -7.279579 1.400745 1.071676 -1.901451 1.845716 -3.111830 -4.264661 1.786559 -0.808449 6.351557 -3.261278 -8.639154 -1.687125 -0.114302 -0.308890 0.000000 0.000000 0.000000 -9.433707 18.095904 3.195170 -59.776135 21.163034 12.299528 -4.792398 -18.276473 -0.034596 -6.505665 12.363320 -0.696063 -0.125969 -0.062457 -0.000000 0.000000 0.000000 0.000000 0.000000 0.000000 0.000000 3.155593 4.673597 -0.019457 39.678658 30.136709 18.358105 0.197098 81.589944 -0.032291 -4.503065 5.863003 -0.250250 0.029540 -0.463730 -0.000000 0.000000 0.000000 0.000000 0.000000 0.000000 0.000000 
2.119597 16.318836 -2.378305 162.864021 84.890368 166.484777 -7.496557 1.261483 1.611539 -1.957388 1.719823 -3.025822 -4.383220 1.667559 -0.864391 6.608518 -3.212285 -8.759969 -1.799317 -0.119420 -0.362132 0.000000 0.000000 0.000000 -9.746309 17.720443 3.328572 -59.463608 18.432110 12.783498 -4.795142 -17.400943 -0.031910 -6.176483 12.019040 -0.640591 -0.127284 -0.045942 -0.000000 0.000000 0.000000 0.000000 0.000000 0.000000 0.000000 3.730048 4.782175 0.065538 41.401634 28.960407 18.545320 0.216985 80.802664 -0.032234 -4.616041 6.383290 -0.278160 0.035922 -0.466590 -0.000000 0.000000 0.000000 0.000000 0.000000 0.000000 0.000000 
2.246987 16.247178 -2.425352 162.801943 84.153595 166.331892 -7.638534 1.151317 2.180328 -1.999493 1.617998 -2.936438 -4.507634 1.571986 -0.929416 6.809318 -3.198742 -8.862967 -1.914155 -0.124877 -0.411442 0.000000 0.000000 0.000000 -10.073985 17.260726 3.449381 -59.124947 15.503601 13.113095 -4.801396 -16.452972 -0.028986 -5.685553 11.598228 -0.566808 -0.128425 -0.028405 -0.000000 0.000000 0.000000 0.000000 0.000000 0.000000 0.000000 4.265752 4.826333 0.139258 43.215790 27.630649 18.622136 0.243940 79.800476 -0.032612 -4.827025 6.974108 -0.316469 0.043250 -0.468539 -0.000000 0.000000 0.000000 0.000000 0.000000 0.000000 0.000000 
2.371644 16.181314 -2.474906 163.079928 83.352964 166.536936 -7.701517 1.073826 2.753241 -2.027575 1.543793 -2.846406 -4.637449 1.503047 -0.995186 6.946995 -3.194082 -8.946911 -2.026260 -0.130282 -0.455918 0.000000 0.000000 0.000000 -10.391766 16.788365 3.555680 -58.770174 12.315811 13.337902 -4.805871 -15.429926 -0.025879 -4.989305 11.090124 -0.473019 -0.128833 -0.010112 -0.000000 0.000000 0.000000 0.000000 0.000000 0.000000 0.000000 4.726633 4.827067 0.186555 45.167493 26.089175 18.530803 0.278702 78.553423 -0.033282 -5.113894 7.614470 -0.364585 0.050451 -0.468662 -0.000000 0.000000 0.000000 0.000000 0.000000 0.000000 0.000000 
2.494780 16.122683 -2.527039 163.585628 82.493998 166.999513 -7.685375 1.029857 3.301258 -2.043311 1.498367 -2.761609 -4.778052 1.461486 -1.064302 7.034449 -3.222532 -9.001816 -2.135635 -0.135873 -0.491730 0.000000 0.000000 0.000000 -10.704248 16.244702 3.637280 -58.411470 8.998776 13.325609 -4.802604 -14.444897 -0.022801 -4.051263 10.497850 -0.360527 -0.127862 0.007954 -0.000000 0.000000 0.000000 0.000000 0.000000 0.000000 0.000000 5.144406 4.752722 0.221595 47.220490 24.385979 18.269086 0.323084 77.001561 -0.034279 -5.503302 8.277758 -0.424908 0.058077 -0.466087 -0.000000 0.000000 0.000000 0.000000 0.000000 0.000000 0.000000 
2.617626 16.072265 -2.581577 164.219760 81.584030 167.631646 -7.594705 1.015747 3.799571 -2.047898 1.478885 -2.683040 -4.930075 1.444392 -1.123815 7.079619 -3.274579 -9.032778 -2.238408 -0.141308 -0.519653 0.000000 0.000000 0.000000 -11.003185 15.699336 3.689906 -58.052753 5.525003 13.149688 -4.785159 -13.545502 -0.019944 -2.859309 9.795313 -0.233843 -0.125114 0.025024 -0.000000 0.000000 0.000000 0.000000 0.000000 0.000000 0.000000 5.515408 4.610003 0.240593 49.380111 22.538121 17.788439 0.377058 75.106464 -0.035489 -5.984390 8.940284 -0.497244 0.065493 -0.460104 -0.000000 0.000000 0.000000 0.000000 0.000000 0.000000 0.000000 
2.741349 16.030921 -2.638324 164.907532 80.632497 168.367516 -7.438159 1.024644 4.225755 -2.043211 1.479509 -2.612431 -5.095156 1.445924 -1.165970 7.097466 -3.348361 -9.041190 -2.332916 -0.146496 -0.539381 0.000000 0.000000 0.000000 -11.292290 15.177471 3.709426 -57.696510 1.939167 12.862165 -4.749521 -12.826876 -0.017532 -1.430900 8.955044 -0.102168 -0.120662 0.040059 -0.000000 0.000000 0.000000 0.000000 0.000000 0.000000 0.000000 5.856666 4.400998 0.250515 51.626133 20.596617 17.054340 0.440580 72.832384 -0.036798 -6.555990 9.576738 -0.581496 0.072583 -0.450223 -0.000000 0.000000 0.000000 0.000000 0.000000 0.000000 0.000000 
2.867029 15.999264 -2.696968 165.590612 79.648426 169.152693 -7.228350 1.048578 4.559263 -2.031768 1.493207 -2.555322 -5.273584 1.458818 -1.199352 7.103614 -3.439003 -9.012402 -2.420236 -0.151839 -0.545926 0.000000 0.000000 0.000000 -11.560590 14.597529 3.697870 -57.365731 -1.571683 12.403802 -4.692299 -12.429888 -0.015679 0.189861 7.949282 0.021193 -0.114916 0.051940 -0.000000 0.000000 0.000000 0.000000 0.000000 0.000000 0.000000 6.193034 4.135861 0.270806 53.928653 18.612174 16.041746 0.514648 70.153063 -0.038056 -7.219662 10.158585 -0.677065 0.079610 -0.436289 -0.000000 0.000000 0.000000 0.000000 0.000000 0.000000 0.000000 
2.995592 15.977674 -2.757337 166.232941 78.642901 169.953169 -6.978812 1.075234 4.789387 -2.015095 1.508450 -2.511031 -5.462263 1.471854 -1.214873 7.113822 -3.537088 -8.952805 -2.500011 -0.157249 -0.540803 0.000000 0.000000 0.000000 -11.797840 13.995318 3.658454 -57.067702 -4.970409 11.904901 -4.615364 -12.430545 -0.014356 1.914128 6.756325 0.118541 -0.109106 0.060300 -0.000000 0.000000 0.000000 0.000000 0.000000 0.000000 0.000000 6.539680 3.830691 0.307829 56.262205 16.650732 14.720141 0.599085 67.062476 -0.039078 -7.965523 10.652916 -0.780951 0.086488 -0.418303 -0.000000 0.000000 0.000000 0.000000 0.000000 0.000000 0.000000 
